<svg xmlns="http://www.w3.org/2000/svg" viewBox="0 0 48 48" width="48" height="48">
  <path fill="#FF9800" d="M24,4C12.954,4,4,12.954,4,24s8.954,20,20,20s20-8.954,20-20S35.046,4,24,4z"/>
  <path fill="#212121" d="M35.5,32.5c-0.5,0.3-1.1,0.2-1.4-0.3c-3-3.6-6.8-5.7-11.1-5.7c-3.2,0-6.1,1-8.5,2.5 c-0.5,0.3-1.1,0.2-1.4-0.3c-0.3-0.5-0.2-1.1,0.3-1.4c2.7-1.7,6-2.8,9.6-2.8c4.9,0,9.3,2.3,12.8,6.4C36,31.4,35.9,32.1,35.5,32.5z"/>
  <path fill="#212121" d="M37.5,30.5c-0.4,0.4-1,0.4-1.4,0l-2.5-2.5c-0.4-0.4-0.4-1,0-1.4s1-0.4,1.4,0l2.5,2.5 C37.9,29.5,37.9,30.1,37.5,30.5z"/>
  <path fill="#fff" d="M24,12c-6.1,0-11,4.9-11,11c0,3.3,1.4,6.2,3.7,8.2l-0.2,0.1c0,0,2.5,1.6,7.5,1.6s7.5-1.6,7.5-1.6 l-0.2-0.1c2.3-2,3.7-4.9,3.7-8.2C35,16.9,30.1,12,24,12z M20,24c-1.1,0-2-0.9-2-2c0-1.1,0.9-2,2-2s2,0.9,2,2 C22,23.1,21.1,24,20,24z M28,24c-1.1,0-2-0.9-2-2c0-1.1,0.9-2,2-2s2,0.9,2,2C30,23.1,29.1,24,28,24z"/>
</svg>