<svg xmlns="http://www.w3.org/2000/svg" viewBox="0 0 48 48" width="48" height="48">
  <path fill="#212121" d="M24,4C12.954,4,4,12.954,4,24s8.954,20,20,20s20-8.954,20-20S35.046,4,24,4z"/>
  <path fill="#fff" d="M32.5,30.5c-0.5,1.1-0.7,1.6-1.4,2.6c-0.9,1.3-2.1,3-3.6,3c-1.4,0-1.7-0.9-3.5-0.9 c-1.8,0-2.2,0.9-3.5,0.9c-1.5,0-2.6-1.5-3.5-2.8c-2.5-3.6-2.8-7.9-1.2-10.2c1.1-1.6,2.8-2.5,4.5-2.5c1.7,0,2.7,0.9,4.1,0.9 c1.3,0,2.1-0.9,4-0.9c1.5,0,3,0.8,4.1,2.2C29.1,24.7,30.3,29.5,32.5,30.5z M27,14c0.7-0.9,1.2-2.1,1-3.3c-1.1,0.1-2.4,0.8-3.2,1.8 c-0.7,0.8-1.3,2.1-1.1,3.3C24.9,15.8,26.2,15,27,14z"/>
</svg>