<svg xmlns="http://www.w3.org/2000/svg" viewBox="0 0 48 48" width="48" height="48">
  <path fill="#5865F2" d="M24,4C12.954,4,4,12.954,4,24s8.954,20,20,20s20-8.954,20-20S35.046,4,24,4z"/>
  <path fill="#fff" d="M32.5,15.5c-2.2-1-4.6-1.7-7-2.1c-0.3,0.5-0.6,1.2-0.9,1.8c-2.6-0.4-5.2-0.4-7.8,0 c-0.3-0.6-0.6-1.2-0.9-1.8c-2.5,0.4-4.8,1.1-7,2.1c-4.4,6.6-5.6,13-5,19.3c2.9,2.1,5.7,3.4,8.4,4.3c0.7-0.9,1.3-1.9,1.8-3 c-1-0.4-1.9-0.8-2.8-1.4c0.2-0.2,0.5-0.4,0.7-0.5c5.5,2.5,11.5,2.5,16.9,0c0.2,0.2,0.5,0.4,0.7,0.5c-0.9,0.5-1.8,1-2.8,1.4 c0.5,1,1.1,2,1.8,3c2.7-0.8,5.5-2.2,8.4-4.3C38.4,28,36.9,21.6,32.5,15.5z M18.4,29.2c-1.7,0-3.1-1.5-3.1-3.4s1.4-3.4,3.1-3.4 c1.7,0,3.1,1.5,3.1,3.4S20.1,29.2,18.4,29.2z M29.6,29.2c-1.7,0-3.1-1.5-3.1-3.4s1.4-3.4,3.1-3.4c1.7,0,3.1,1.5,3.1,3.4 S31.3,29.2,29.6,29.2z"/>
</svg>