<svg xmlns="http://www.w3.org/2000/svg" viewBox="0 0 48 48" width="48" height="48">
  <path fill="#1877F2" d="M24,4C12.954,4,4,12.954,4,24c0,10.028,7.379,18.331,17,19.777V29h-4v-5h4v-3.5 c0-4.418,2.686-6.5,6.319-6.5c1.832,0,3.681,0.333,3.681,0.333V18h-2.076c-2.041,0-2.674,1.266-2.674,2.564V24h4.5l-0.72,5H26.25 v14.777C35.621,42.331,43,34.028,43,24C43,12.954,34.046,4,24,4z"/>
  <path fill="#fff" d="M29.53,29l0.72-5h-4.5v-3.436c0-1.298,0.633-2.564,2.674-2.564h2.076v-4.167 c0,0-1.849-0.333-3.681-0.333c-3.633,0-6.319,2.082-6.319,6.5V24h-4v5h4v14.777C21.173,44.258,22.574,44.5,24,44.5 s2.827-0.242,4.25-0.723V29H29.53z"/>
</svg>