<svg xmlns="http://www.w3.org/2000/svg" viewBox="0 0 48 48" width="48" height="48">
  <path fill="#00C300" d="M24,4C12.954,4,4,12.954,4,24s8.954,20,20,20s20-8.954,20-20S35.046,4,24,4z"/>
  <path fill="#fff" d="M36,22.1c0-5.6-5.6-10.2-12.5-10.2S11,16.5,11,22.1c0,5,4.5,9.2,10.5,10c0.4,0.1,1,0.3,1.1,0.6 c0.1,0.3,0.1,0.8,0,1.1c0,0-0.1,0.9-0.2,1c-0.1,0.3-0.3,1.3,1.2,0.7c1.5-0.6,8-4.7,10.9-8.1C36.1,25.6,36,23.9,36,22.1z M18.8,25.3 h-2.5c-0.4,0-0.7-0.3-0.7-0.7v-5.4c0-0.4,0.3-0.7,0.7-0.7c0.4,0,0.7,0.3,0.7,0.7v4.7h1.8c0.4,0,0.7,0.3,0.7,0.7 S19.2,25.3,18.8,25.3z M21.4,24.6c0,0.4-0.3,0.7-0.7,0.7c-0.4,0-0.7-0.3-0.7-0.7v-5.4c0-0.4,0.3-0.7,0.7-0.7c0.4,0,0.7,0.3,0.7,0.7 V24.6z M27.5,24.6c0,0.3-0.2,0.6-0.5,0.7c-0.1,0-0.1,0-0.2,0c-0.2,0-0.5-0.1-0.6-0.3l-2.6-3.5v3.1c0,0.4-0.3,0.7-0.7,0.7 c-0.4,0-0.7-0.3-0.7-0.7v-5.4c0-0.3,0.2-0.6,0.5-0.7c0.3-0.1,0.6,0,0.8,0.3l2.6,3.5v-3.1c0-0.4,0.3-0.7,0.7-0.7 c0.4,0,0.7,0.3,0.7,0.7V24.6z M32.1,20.5c0.4,0,0.7,0.3,0.7,0.7c0,0.4-0.3,0.7-0.7,0.7h-1.8v1.3h1.8c0.4,0,0.7,0.3,0.7,0.7 s-0.3,0.7-0.7,0.7h-2.5c-0.4,0-0.7-0.3-0.7-0.7v-5.4c0-0.4,0.3-0.7,0.7-0.7h2.5c0.4,0,0.7,0.3,0.7,0.7c0,0.4-0.3,0.7-0.7,0.7h-1.8 v1.3H32.1z"/>
</svg>