<svg xmlns="http://www.w3.org/2000/svg" viewBox="0 0 48 48" width="48" height="48">
  <path fill="#212121" d="M24,4C12.954,4,4,12.954,4,24s8.954,20,20,20s20-8.954,20-20S35.046,4,24,4z"/>
  <path fill="#10A37F" d="M35.5,20.5c0.6-1.8,0.3-3.8-0.8-5.3c-1.6-2.2-4.4-3.1-7-2.3c-1.2-1.4-3-2.3-4.9-2.3 c-2.6,0-5,1.6-6,4c-1.9,0.2-3.6,1.2-4.7,2.8c-1.6,2.2-1.6,5.2-0.1,7.4c-0.6,1.8-0.3,3.8,0.8,5.3c1.6,2.2,4.4,3.1,7,2.3 c1.2,1.4,3,2.3,4.9,2.3c2.6,0,5-1.6,6-4c1.9-0.2,3.6-1.2,4.7-2.8C37,25.6,37,22.6,35.5,20.5z M24.2,33c-1.2,0-2.3-0.5-3.1-1.3 l0.1-0.1l5.1-2.9c0.3-0.1,0.4-0.4,0.4-0.7v-7.2l2.2,1.3c0,0,0.1,0.1,0.1,0.1v5.9C29,31.2,26.9,33,24.2,33z M14.5,28.8 c-0.6-1-0.8-2.2-0.5-3.4l0.1,0.1l5.1,2.9c0.3,0.1,0.5,0.1,0.8,0l6.2-3.6v2.5c0,0.1,0,0.1-0.1,0.1l-5.1,3 C18.5,31.5,15.7,30.8,14.5,28.8z M13.1,18.5c0.6-1,1.6-1.8,2.8-2.1v6c0,0.3,0.1,0.5,0.4,0.7l6.2,3.6l-2.2,1.3 c0,0-0.1,0.1-0.1,0.1l-5.1-3C12.6,23.1,11.9,20.3,13.1,18.5z M31.8,23.3l-6.2-3.6l2.2-1.3c0,0,0.1,0,0.1-0.1l5.1,3 c2.5,1.4,3.2,4.2,2,6.7c-0.6,1-1.6,1.8-2.8,2.1v-6C32.2,23.7,32,23.5,31.8,23.3z M34,19.6l-0.1-0.1l-5.1-2.9 c-0.3-0.1-0.5-0.1-0.8,0l-6.2,3.6v-2.5c0-0.1,0-0.1,0.1-0.1l5.1-3c2.5-1.4,5.8-0.6,7.2,1.9C34.7,17.5,34.8,18.6,34,19.6z M20.8,23.7l-2.2-1.3c0,0-0.1-0.1-0.1-0.1v-5.9c0-2.9,2.4-5.3,5.3-5.3c1.2,0,2.3,0.5,3.1,1.3l-0.1,0.1l-5.1,2.9 c-0.3,0.1-0.4,0.4-0.4,0.7v7.2L20.8,23.7z M21.9,21.2l2.8-1.6l2.8,1.6v3.2l-2.8,1.6l-2.8-1.6V21.2z"/>
</svg>