<svg xmlns="http://www.w3.org/2000/svg" viewBox="0 0 48 48" width="48" height="48">
  <path fill="#1565C0" d="M24,4C12.954,4,4,12.954,4,24s8.954,20,20,20s20-8.954,20-20S35.046,4,24,4z"/>
  <path fill="#fff" d="M32,20c0-3-2.5-5.5-5.5-5.5h-7c-0.3,0-0.5,0.2-0.6,0.5l-2.8,17.5c0,0.3,0.2,0.5,0.5,0.5h3.6l0.9-5.5 h-0.1c0.1-0.3,0.3-0.5,0.6-0.5h1.3c3.1,0,5.5-1.3,6.2-4.9C29.2,21.6,30.6,21.8,32,20z"/>
  <path fill="#29B6F6" d="M33.4,18.2c-0.1-0.5-0.2-0.9-0.4-1.2c-0.6-1.1-1.8-1.8-3.2-2h-2.3c-0.3,0-0.5,0.2-0.6,0.5L25,26.9 c0,0.2,0.1,0.4,0.4,0.4h2.2l0.6-3.7l0-0.2c0.1-0.3,0.3-0.5,0.6-0.5h0.4c2.5,0,4.4-1,5-3.9C34.4,18.4,34,18.1,33.4,18.2z"/>
</svg>