<svg xmlns="http://www.w3.org/2000/svg" viewBox="0 0 48 48" width="48" height="48">
  <path fill="#FFFC00" d="M24,4C12.954,4,4,12.954,4,24s8.954,20,20,20s20-8.954,20-20S35.046,4,24,4z"/>
  <path fill="#212121" d="M36.2,30.1c-4.8-0.8-7-5.6-7.1-5.8c-0.2-0.4-0.3-0.7-0.2-1c0.2-0.4,0.7-0.6,1.1-0.7 c0.3-0.1,0.6-0.2,0.8-0.3c0.8-0.4,1.2-0.9,1.1-1.4c-0.1-0.4-0.5-0.6-0.8-0.7c-0.2,0-0.4,0-0.5,0.1c-0.3,0.1-0.6,0.2-0.9,0.2 c-0.4,0-0.6-0.1-0.7-0.2c0-0.1,0-0.3,0-0.6c0.1-1.2,0.3-3-0.3-4.2c-1.2-2.4-3.7-3.7-6.1-3.4c-2.4-0.2-4.9,1.1-6.1,3.4 c-0.6,1.2-0.4,3-0.3,4.2c0,0.2,0,0.4,0,0.6c-0.1,0.1-0.3,0.2-0.7,0.2c-0.3,0-0.6-0.1-0.9-0.2c-0.2,0-0.3-0.1-0.5-0.1 c-0.3,0-0.7,0.3-0.8,0.7c-0.1,0.5,0.3,1,1.1,1.4c0.2,0.1,0.5,0.2,0.8,0.3c0.4,0.1,0.9,0.3,1.1,0.7c0.1,0.3,0.1,0.6-0.2,1 c-0.1,0.2-2.3,5-7.1,5.8c-0.4,0.1-0.7,0.4-0.6,0.9c0.1,0.7,0.9,1.2,2.5,1.5c0.2,0,0.3,0.2,0.4,0.5c0,0.1,0.1,0.3,0.1,0.4 c0.1,0.3,0.1,0.5,0.5,0.5c0.3,0,0.7-0.1,1.2-0.2c0.6-0.1,1.4-0.3,2.4-0.1c0.5,0.1,1,0.3,1.5,0.6c1.1,0.6,2.2,1.3,4.4,1.3 s3.3-0.7,4.4-1.3c0.5-0.3,1-0.5,1.5-0.6c0.9-0.2,1.8,0,2.4,0.1c0.5,0.1,0.9,0.2,1.2,0.2c0.4,0,0.4-0.2,0.5-0.5 c0-0.1,0.1-0.3,0.1-0.4c0.1-0.2,0.2-0.4,0.4-0.5c1.6-0.3,2.4-0.8,2.5-1.5C36.9,30.5,36.6,30.2,36.2,30.1z"/>
</svg>