<svg xmlns="http://www.w3.org/2000/svg" viewBox="0 0 48 48" width="48" height="48">
  <path fill="#1DB954" d="M24,4C12.954,4,4,12.954,4,24s8.954,20,20,20s20-8.954,20-20S35.046,4,24,4z"/>
  <path fill="#191414" d="M31.9,31.3c-0.3,0-0.5-0.1-0.7-0.2c-4-2.4-9-2.7-14.9-1.5c-0.3,0.1-0.7,0.1-1-0.1 c-0.3-0.2-0.4-0.5-0.4-0.9c0-0.8,0.5-1.1,1.1-1.2c6.5-1.4,12.2-0.8,16.7,1.9c0.5,0.3,0.7,0.8,0.4,1.4 C32.9,31.1,32.4,31.3,31.9,31.3z M33.6,26.4c-0.3,0-0.6-0.1-0.8-0.3c-4.6-2.8-11.6-3.6-17-2c-0.4,0.1-1,0-1.2-0.5 c-0.2-0.4-0.2-1,0.3-1.4c0.2-0.1,0.4-0.2,0.7-0.3c6.2-1.9,14-1,19.2,2.2c0.3,0.2,0.5,0.5,0.5,0.9c0,0.4-0.1,0.8-0.4,1 C34.5,26.3,34.1,26.4,33.6,26.4z M35.5,20.8c-0.3,0-0.6-0.1-0.9-0.3c-5.3-3.1-14.1-3.4-19.2-1.9c-0.5,0.1-1.1,0-1.4-0.5 c-0.3-0.5-0.3-1.2,0.2-1.6c0.2-0.2,0.5-0.3,0.8-0.4c5.8-1.7,15.4-1.4,21.4,2.1c0.5,0.3,0.7,0.9,0.5,1.4c-0.1,0.4-0.4,0.7-0.8,0.9 C35.9,20.7,35.7,20.8,35.5,20.8z"/>
</svg>