<svg xmlns="http://www.w3.org/2000/svg" viewBox="0 0 48 48" width="48" height="48">
  <linearGradient id="st1" x1="6" x2="42" y1="24" y2="24" gradientUnits="userSpaceOnUse">
    <stop offset="0" stop-color="#1a4e8c"/>
    <stop offset="1" stop-color="#0f3266"/>
  </linearGradient>
  <path fill="url(#st1)" d="M24,4C12.954,4,4,12.954,4,24s8.954,20,20,20s20-8.954,20-20S35.046,4,24,4z"/>
  <path fill="#fff" d="M24,15c-2.761,0-5,2.239-5,5c0,2.099,1.301,3.891,3.14,4.633l3.617,5.424 C25.831,29.391,24.946,29,24,29c-2.209,0-4,1.791-4,4s1.791,4,4,4s4-1.791,4-4c0-0.557-0.114-1.088-0.32-1.571l-3.437-5.155 C27.299,25.515,29,23.463,29,21c0-1.025-0.31-1.978-0.839-2.773l3.178-1.589C31.464,16.534,31.516,16.5,31.63,16.5 c0.29,0,0.525,0.235,0.525,0.525c0,0.115-0.037,0.222-0.1,0.309l-2.418,3.627c0.229,0.323,0.413,0.678,0.546,1.058l2.955-0.985 c0.189-0.063,0.391-0.097,0.6-0.097c1.038,0,1.88,0.842,1.88,1.88c0,1.039-0.842,1.88-1.88,1.88c-0.945,0-1.727-0.698-1.859-1.607 l-2.995,0.998c-0.011,0.282-0.053,0.556-0.121,0.822l5.109,2.555c0.221-0.077,0.459-0.119,0.707-0.119 c1.243,0,2.25,1.007,2.25,2.25s-1.007,2.25-2.25,2.25s-2.25-1.007-2.25-2.25c0-0.383,0.096-0.744,0.265-1.06l-4.853-2.426 C26.958,24.577,25.579,25,24.11,25H24c-2.209,0-4-1.791-4-4s1.791-4,4-4s4,1.791,4,4c0,0.361-0.048,0.711-0.137,1.044l2.417-3.625 c-0.073-0.172-0.113-0.362-0.113-0.56c0-0.78,0.633-1.413,1.413-1.413c0.269,0,0.521,0.075,0.736,0.206l-3.206,1.603 C28.431,17.061,27.392,16.225,26.177,15.91L29.5,14h-4c-0.495,0-0.977,0.06-1.438,0.171L24,15z M24,19c-1.105,0-2,0.895-2,2 s0.895,2,2,2s2-0.895,2-2S25.105,19,24,19z M24,31c-1.105,0-2,0.895-2,2s0.895,2,2,2s2-0.895,2-2S25.105,31,24,31z"/>
</svg>