<svg xmlns="http://www.w3.org/2000/svg" viewBox="0 0 48 48" width="48" height="48">
  <path fill="#212121" d="M24,4C12.954,4,4,12.954,4,24s8.954,20,20,20s20-8.954,20-20S35.046,4,24,4z"/>
  <path fill="#ec407a" d="M34.149,18.238c-2.079,0-3.923-0.983-5.107-2.51v8.878c0,4.451-3.61,8.061-8.061,8.061 s-8.061-3.61-8.061-8.061c0-4.451,3.61-8.061,8.061-8.061c0.33,0,0.655,0.022,0.975,0.061v4.133 c-0.312-0.068-0.633-0.108-0.965-0.108c-2.432,0-4.405,1.973-4.405,4.405s1.973,4.405,4.405,4.405 c2.432,0,4.405-1.973,4.405-4.405V11.833h3.859c0.355,2.735,2.527,4.893,5.274,5.128v1.277H34.149z"/>
  <path fill="#00f2ea" d="M32.149,16.238c-2.079,0-3.923-0.983-5.107-2.51v8.878c0,4.451-3.61,8.061-8.061,8.061 s-8.061-3.61-8.061-8.061c0-4.451,3.61-8.061,8.061-8.061c0.33,0,0.655,0.022,0.975,0.061v4.133 c-0.312-0.068-0.633-0.108-0.965-0.108c-2.432,0-4.405,1.973-4.405,4.405s1.973,4.405,4.405,4.405 c2.432,0,4.405-1.973,4.405-4.405V9.833h3.859c0.355,2.735,2.527,4.893,5.274,5.128v1.277H32.149z"/>
</svg>