<svg xmlns="http://www.w3.org/2000/svg" viewBox="0 0 48 48" width="48" height="48">
  <path fill="#25D366" d="M24,4C12.954,4,4,12.954,4,24c0,3.826,1.078,7.394,2.944,10.426L4,44l9.855-2.879 C16.844,42.963,20.32,44,24,44c11.046,0,20-8.954,20-20S35.046,4,24,4z"/>
  <path fill="#fff" d="M35.176,29.676c-0.527,1.482-2.582,2.711-4.258,3.068c-1.146,0.244-2.641,0.439-7.676-1.65 c-6.443-2.674-10.589-9.219-10.909-9.646c-0.311-0.427-2.543-3.381-2.543-6.449c0-3.068,1.604-4.576,2.174-5.203 c0.57-0.627,1.244-0.783,1.658-0.783s0.828,0.008,1.189,0.022c0.381,0.016,0.893-0.145,1.396,1.064 c0.52,1.244,1.769,4.312,1.926,4.625c0.156,0.312,0.26,0.676,0.052,1.094c-0.208,0.418-0.312,0.676-0.614,1.042 c-0.312,0.365-0.656,0.814-0.936,1.094c-0.312,0.312-0.637,0.65-0.273,1.277c0.365,0.627,1.621,2.674,3.479,4.332 c2.389,2.129,4.406,2.789,5.033,3.101c0.627,0.312,0.992,0.26,1.357-0.156c0.365-0.418,1.562-1.813,1.979-2.439 c0.416-0.627,0.832-0.52,1.404-0.312c0.572,0.208,3.636,1.717,4.262,2.029c0.627,0.312,1.043,0.469,1.199,0.727 C35.703,26.83,35.703,28.195,35.176,29.676z"/>
</svg>